<?xml version="1.0" encoding="UTF-8" standalone="no"?>
<!DOCTYPE svg PUBLIC "-//W3C//DTD SVG 1.1//EN"
 "http://www.w3.org/Graphics/SVG/1.1/DTD/svg11.dtd">
<!-- Generated by graphviz version 14.1.2 (20260124.0452)
 -->
<!-- Title: top_module Pages: 1 -->
<svg width="1378pt" height="798pt"
 viewBox="0.00 0.00 1378.00 798.00" xmlns="http://www.w3.org/2000/svg" xmlns:xlink="http://www.w3.org/1999/xlink">
<g id="graph0" class="graph" transform="scale(1 1) rotate(0) translate(4 793.5)">
<title>top_module</title>
<polygon fill="white" stroke="none" points="-4,4 -4,-793.5 1373.6,-793.5 1373.6,4 -4,4"/>
<text xml:space="preserve" text-anchor="middle" x="684.8" y="-7.2" font-family="Times,serif" font-size="14.00">top_module</text>
<!-- n1 -->
<g id="node1" class="node">
<title>n1</title>
<polygon fill="none" stroke="black" points="522.13,-413.04 522.13,-427.96 506.31,-438.5 483.95,-438.5 468.13,-427.96 468.13,-413.04 483.95,-402.5 506.31,-402.5 522.13,-413.04"/>
<text xml:space="preserve" text-anchor="middle" x="495.13" y="-415.45" font-family="Times,serif" font-size="14.00">clk</text>
</g>
<!-- c26 -->
<g id="node22" class="node">
<title>c26</title>
<polygon fill="none" stroke="black" points="658.76,-148.25 658.76,-368.75 877.76,-368.75 877.76,-148.25 658.76,-148.25"/>
<text xml:space="preserve" text-anchor="middle" x="693.39" y="-351.45" font-family="Times,serif" font-size="14.00">analog_in</text>
<polyline fill="none" stroke="black" points="658.76,-344.25 728.01,-344.25"/>
<text xml:space="preserve" text-anchor="middle" x="693.39" y="-326.95" font-family="Times,serif" font-size="14.00">clk</text>
<polyline fill="none" stroke="black" points="658.76,-319.75 728.01,-319.75"/>
<text xml:space="preserve" text-anchor="middle" x="693.39" y="-302.45" font-family="Times,serif" font-size="14.00">gnd</text>
<polyline fill="none" stroke="black" points="658.76,-295.25 728.01,-295.25"/>
<text xml:space="preserve" text-anchor="middle" x="693.39" y="-277.95" font-family="Times,serif" font-size="14.00">gpio_in</text>
<polyline fill="none" stroke="black" points="658.76,-270.75 728.01,-270.75"/>
<text xml:space="preserve" text-anchor="middle" x="693.39" y="-253.45" font-family="Times,serif" font-size="14.00">rst_n</text>
<polyline fill="none" stroke="black" points="658.76,-246.25 728.01,-246.25"/>
<text xml:space="preserve" text-anchor="middle" x="693.39" y="-228.95" font-family="Times,serif" font-size="14.00">uart_rx</text>
<polyline fill="none" stroke="black" points="658.76,-221.75 728.01,-221.75"/>
<text xml:space="preserve" text-anchor="middle" x="693.39" y="-204.45" font-family="Times,serif" font-size="14.00">uart_tx</text>
<polyline fill="none" stroke="black" points="658.76,-197.25 728.01,-197.25"/>
<text xml:space="preserve" text-anchor="middle" x="693.39" y="-179.95" font-family="Times,serif" font-size="14.00">vcc_3v3</text>
<polyline fill="none" stroke="black" points="658.76,-172.75 728.01,-172.75"/>
<text xml:space="preserve" text-anchor="middle" x="693.39" y="-155.45" font-family="Times,serif" font-size="14.00">vcc_5v</text>
<polyline fill="none" stroke="black" points="728.01,-148.25 728.01,-368.75"/>
<text xml:space="preserve" text-anchor="middle" x="764.89" y="-261.7" font-family="Times,serif" font-size="14.00">esp32_inst</text>
<text xml:space="preserve" text-anchor="middle" x="764.89" y="-245.2" font-family="Times,serif" font-size="14.00">esp32_top</text>
<polyline fill="none" stroke="black" points="801.76,-148.25 801.76,-368.75"/>
<text xml:space="preserve" text-anchor="middle" x="839.76" y="-308.95" font-family="Times,serif" font-size="14.00">analog_out</text>
<polyline fill="none" stroke="black" points="801.76,-259.25 877.76,-259.25"/>
<text xml:space="preserve" text-anchor="middle" x="839.76" y="-198.95" font-family="Times,serif" font-size="14.00">gpio_out</text>
</g>
<!-- n1&#45;&gt;c26 -->
<g id="edge1" class="edge">
<title>n1:e&#45;&gt;c26:w</title>
<path fill="none" stroke="black" d="M523.38,-420.5C569.15,-420.5 586.42,-421.32 622.76,-393.5 644.18,-377.11 632.26,-344.04 647.81,-334.58"/>
<polygon fill="black" stroke="black" points="648.36,-338.05 657.29,-332.35 646.75,-331.23 648.36,-338.05"/>
</g>
<!-- n2 -->
<g id="node2" class="node">
<title>n2</title>
<polygon fill="none" stroke="black" points="495.13,-492.5 391.39,-474.5 495.13,-456.5 598.88,-474.5 495.13,-492.5"/>
<text xml:space="preserve" text-anchor="middle" x="495.13" y="-469.45" font-family="Times,serif" font-size="14.00">esp32_analog_in</text>
</g>
<!-- n2&#45;&gt;c26 -->
<g id="edge17" class="edge">
<title>n2:e&#45;&gt;c26:w</title>
<path fill="none" stroke="black" d="M602.73,-474.5C656.48,-474.5 608.97,-373.37 647.69,-358.35"/>
<polygon fill="black" stroke="black" points="647.98,-361.85 657.27,-356.75 646.83,-354.95 647.98,-361.85"/>
</g>
<!-- x11 -->
<g id="node33" class="node">
<title>x11</title>
<ellipse fill="black" stroke="black" cx="768.26" cy="-474.5" rx="1.8" ry="1.8"/>
</g>
<!-- n2&#45;&gt;x11 -->
<g id="edge18" class="edge">
<title>n2:e&#45;&gt;x11:w</title>
<path fill="none" stroke="black" d="M602.73,-474.5C670.9,-474.5 690.74,-474.5 753.62,-474.5"/>
<polygon fill="black" stroke="black" points="753.47,-478 763.47,-474.5 753.47,-471 753.47,-478"/>
</g>
<!-- n3 -->
<g id="node3" class="node">
<title>n3</title>
<polygon fill="none" stroke="black" points="1038.5,-331.5 928.24,-313.5 1038.5,-295.5 1148.76,-313.5 1038.5,-331.5"/>
<text xml:space="preserve" text-anchor="middle" x="1038.5" y="-308.45" font-family="Times,serif" font-size="14.00">esp32_analog_out</text>
</g>
<!-- n4 -->
<g id="node4" class="node">
<title>n4</title>
<polygon fill="none" stroke="black" points="495.13,-573.5 402.97,-555.5 495.13,-537.5 587.3,-555.5 495.13,-573.5"/>
<text xml:space="preserve" text-anchor="middle" x="495.13" y="-550.45" font-family="Times,serif" font-size="14.00">esp32_gpio_in</text>
</g>
<!-- n5 -->
<g id="node5" class="node">
<title>n5</title>
<polygon fill="none" stroke="black" points="1038.5,-222.5 939.82,-204.5 1038.5,-186.5 1137.18,-204.5 1038.5,-222.5"/>
<text xml:space="preserve" text-anchor="middle" x="1038.5" y="-199.45" font-family="Times,serif" font-size="14.00">esp32_gpio_out</text>
</g>
<!-- x8 -->
<g id="node30" class="node">
<title>x8</title>
<ellipse fill="black" stroke="black" cx="1201.03" cy="-219.5" rx="1.8" ry="1.8"/>
</g>
<!-- n5&#45;&gt;x8 -->
<g id="edge23" class="edge">
<title>n5:e&#45;&gt;x8:w</title>
<path fill="none" stroke="black" d="M1140.89,-204.5C1163.48,-204.5 1170.43,-215.18 1188.13,-218.52"/>
<polygon fill="black" stroke="black" points="1187.46,-221.97 1197.73,-219.37 1188.07,-215 1187.46,-221.97"/>
</g>
<!-- x17 -->
<g id="node39" class="node">
<title>x17</title>
<ellipse fill="black" stroke="black" cx="1201.03" cy="-189.5" rx="1.8" ry="1.8"/>
</g>
<!-- n5&#45;&gt;x17 -->
<g id="edge22" class="edge">
<title>n5:e&#45;&gt;x17:w</title>
<path fill="none" stroke="black" d="M1140.89,-204.5C1163.48,-204.5 1170.43,-193.82 1188.13,-190.48"/>
<polygon fill="black" stroke="black" points="1188.07,-194 1197.73,-189.63 1187.46,-187.03 1188.07,-194"/>
</g>
<!-- n6 -->
<g id="node6" class="node">
<title>n6</title>
<polygon fill="none" stroke="black" points="495.13,-627.5 460.15,-609.5 495.13,-591.5 530.12,-609.5 495.13,-627.5"/>
<text xml:space="preserve" text-anchor="middle" x="495.13" y="-604.45" font-family="Times,serif" font-size="14.00">gnd</text>
</g>
<!-- n7 -->
<g id="node7" class="node">
<title>n7</title>
<polygon fill="none" stroke="black" points="1355.92,-220.04 1355.92,-234.96 1325.63,-245.5 1282.8,-245.5 1252.51,-234.96 1252.51,-220.04 1282.8,-209.5 1325.63,-209.5 1355.92,-220.04"/>
<text xml:space="preserve" text-anchor="middle" x="1304.22" y="-222.45" font-family="Times,serif" font-size="14.00">led_status</text>
</g>
<!-- n8 -->
<g id="node8" class="node">
<title>n8</title>
<polygon fill="none" stroke="black" points="495.13,-681.5 367.5,-663.5 495.13,-645.5 622.76,-663.5 495.13,-681.5"/>
<text xml:space="preserve" text-anchor="middle" x="495.13" y="-658.45" font-family="Times,serif" font-size="14.00">moisture_sensor_gnd</text>
</g>
<!-- n9 -->
<g id="node9" class="node">
<title>n9</title>
<polygon fill="none" stroke="black" points="1038.5,-492.5 913.76,-474.5 1038.5,-456.5 1163.23,-474.5 1038.5,-492.5"/>
<text xml:space="preserve" text-anchor="middle" x="1038.5" y="-469.45" font-family="Times,serif" font-size="14.00">moisture_sensor_out</text>
</g>
<!-- n10 -->
<g id="node10" class="node">
<title>n10</title>
<polygon fill="none" stroke="black" points="495.13,-735.5 368.95,-717.5 495.13,-699.5 621.31,-717.5 495.13,-735.5"/>
<text xml:space="preserve" text-anchor="middle" x="495.13" y="-712.45" font-family="Times,serif" font-size="14.00">moisture_sensor_vcc</text>
</g>
<!-- n11 -->
<g id="node11" class="node">
<title>n11</title>
<polygon fill="none" stroke="black" points="556.81,-89.04 556.81,-103.96 520.68,-114.5 469.58,-114.5 433.46,-103.96 433.46,-89.04 469.58,-78.5 520.68,-78.5 556.81,-89.04"/>
<text xml:space="preserve" text-anchor="middle" x="495.13" y="-91.45" font-family="Times,serif" font-size="14.00">power_good</text>
</g>
<!-- n11&#45;&gt;c26 -->
<g id="edge3" class="edge">
<title>n11:e&#45;&gt;c26:w</title>
<path fill="none" stroke="black" d="M558.07,-96.5C589.22,-96.5 599.3,-103 622.76,-123.5 643.07,-141.25 631.93,-173.37 647.73,-182.51"/>
<polygon fill="black" stroke="black" points="646.76,-185.88 657.29,-184.67 648.3,-179.05 646.76,-185.88"/>
</g>
<!-- n11&#45;&gt;c26 -->
<g id="edge4" class="edge">
<title>n11:e&#45;&gt;c26:w</title>
<path fill="none" stroke="black" d="M558.07,-96.5C589.22,-96.5 597,-105.98 622.76,-123.5 637.88,-133.78 637.19,-151.17 647.9,-157.81"/>
<polygon fill="black" stroke="black" points="646.75,-161.13 657.29,-160.14 648.43,-154.34 646.75,-161.13"/>
</g>
<!-- x16 -->
<g id="node38" class="node">
<title>x16</title>
<ellipse fill="black" stroke="black" cx="768.26" cy="-123.5" rx="1.8" ry="1.8"/>
</g>
<!-- n11&#45;&gt;x16 -->
<g id="edge5" class="edge">
<title>n11:e&#45;&gt;x16:w</title>
<path fill="none" stroke="black" d="M558.07,-96.5C646.92,-96.5 670.32,-121.28 753.67,-123.36"/>
<polygon fill="black" stroke="black" points="753.43,-126.86 763.47,-123.48 753.51,-119.86 753.43,-126.86"/>
</g>
<!-- x18 -->
<g id="node40" class="node">
<title>x18</title>
<ellipse fill="black" stroke="black" cx="768.26" cy="-96.5" rx="1.8" ry="1.8"/>
</g>
<!-- n11&#45;&gt;x18 -->
<g id="edge6" class="edge">
<title>n11:e&#45;&gt;x18:w</title>
<path fill="none" stroke="black" d="M558.07,-96.5C646.08,-96.5 670.92,-96.5 753.5,-96.5"/>
<polygon fill="black" stroke="black" points="753.47,-100 763.47,-96.5 753.47,-93 753.47,-100"/>
</g>
<!-- x19 -->
<g id="node41" class="node">
<title>x19</title>
<ellipse fill="black" stroke="black" cx="768.26" cy="-58.5" rx="1.8" ry="1.8"/>
</g>
<!-- n11&#45;&gt;x19 -->
<g id="edge7" class="edge">
<title>n11:e&#45;&gt;x19:w</title>
<path fill="none" stroke="black" d="M558.07,-96.5C647.64,-96.5 669.68,-61.62 753.58,-58.7"/>
<polygon fill="black" stroke="black" points="753.53,-62.2 763.47,-58.53 753.41,-55.2 753.53,-62.2"/>
</g>
<!-- n12 -->
<g id="node12" class="node">
<title>n12</title>
<polygon fill="none" stroke="black" points="495.13,-789.5 423.23,-771.5 495.13,-753.5 567.03,-771.5 495.13,-789.5"/>
<text xml:space="preserve" text-anchor="middle" x="495.13" y="-766.45" font-family="Times,serif" font-size="14.00">pump_gnd</text>
</g>
<!-- n13 -->
<g id="node13" class="node">
<title>n13</title>
<polygon fill="none" stroke="black" points="1038.5,-168.5 968.05,-150.5 1038.5,-132.5 1108.95,-150.5 1038.5,-168.5"/>
<text xml:space="preserve" text-anchor="middle" x="1038.5" y="-145.45" font-family="Times,serif" font-size="14.00">pump_vcc</text>
</g>
<!-- n14 -->
<g id="node14" class="node">
<title>n14</title>
<polygon fill="none" stroke="black" points="1304.22,-191.5 1238.83,-173.5 1304.22,-155.5 1369.6,-173.5 1304.22,-191.5"/>
<text xml:space="preserve" text-anchor="middle" x="1304.22" y="-168.45" font-family="Times,serif" font-size="14.00">relay_ctrl</text>
</g>
<!-- n15 -->
<g id="node15" class="node">
<title>n15</title>
<polygon fill="none" stroke="black" points="526.89,-251.04 526.89,-265.96 508.29,-276.5 481.98,-276.5 463.37,-265.96 463.37,-251.04 481.98,-240.5 508.29,-240.5 526.89,-251.04"/>
<text xml:space="preserve" text-anchor="middle" x="495.13" y="-253.45" font-family="Times,serif" font-size="14.00">rst_n</text>
</g>
<!-- n15&#45;&gt;c26 -->
<g id="edge11" class="edge">
<title>n15:e&#45;&gt;c26:w</title>
<path fill="none" stroke="black" d="M528.19,-258.5C582.26,-258.5 598.54,-258.5 647.44,-258.5"/>
<polygon fill="black" stroke="black" points="647.25,-262 657.25,-258.5 647.25,-255 647.25,-262"/>
</g>
<!-- n16 -->
<g id="node16" class="node">
<title>n16</title>
<polygon fill="none" stroke="black" points="554.59,-197.04 554.59,-211.96 519.76,-222.5 470.5,-222.5 435.67,-211.96 435.67,-197.04 470.5,-186.5 519.76,-186.5 554.59,-197.04"/>
<text xml:space="preserve" text-anchor="middle" x="495.13" y="-199.45" font-family="Times,serif" font-size="14.00">usb_uart_rx</text>
</g>
<!-- n16&#45;&gt;c26 -->
<g id="edge12" class="edge">
<title>n16:e&#45;&gt;c26:w</title>
<path fill="none" stroke="black" d="M555.84,-204.5C599.34,-204.5 609.55,-229.15 647.33,-233.38"/>
<polygon fill="black" stroke="black" points="647.08,-236.88 657.25,-233.92 647.45,-229.89 647.08,-236.88"/>
</g>
<!-- n17 -->
<g id="node17" class="node">
<title>n17</title>
<polygon fill="none" stroke="black" points="554.04,-143.04 554.04,-157.96 519.53,-168.5 470.73,-168.5 436.22,-157.96 436.22,-143.04 470.73,-132.5 519.53,-132.5 554.04,-143.04"/>
<text xml:space="preserve" text-anchor="middle" x="495.13" y="-145.45" font-family="Times,serif" font-size="14.00">usb_uart_tx</text>
</g>
<!-- n17&#45;&gt;c26 -->
<g id="edge13" class="edge">
<title>n17:e&#45;&gt;c26:w</title>
<path fill="none" stroke="black" d="M555.29,-150.5C587.59,-150.5 595.29,-160.52 622.76,-177.5 636.99,-186.29 637.89,-200.88 647.82,-206.84"/>
<polygon fill="black" stroke="black" points="646.75,-210.18 657.29,-209.14 648.4,-203.38 646.75,-210.18"/>
</g>
<!-- n18 -->
<g id="node18" class="node">
<title>n18</title>
<polygon fill="none" stroke="black" points="1038.5,-114.5 978.9,-96.5 1038.5,-78.5 1098.09,-96.5 1038.5,-114.5"/>
<text xml:space="preserve" text-anchor="middle" x="1038.5" y="-91.45" font-family="Times,serif" font-size="14.00">vcc_3v3</text>
</g>
<!-- n19 -->
<g id="node19" class="node">
<title>n19</title>
<polygon fill="none" stroke="black" points="1038.5,-60.5 985.42,-42.5 1038.5,-24.5 1091.58,-42.5 1038.5,-60.5"/>
<text xml:space="preserve" text-anchor="middle" x="1038.5" y="-37.45" font-family="Times,serif" font-size="14.00">vcc_5v</text>
</g>
<!-- v0 -->
<g id="node20" class="node">
<title>v0</title>
<ellipse fill="none" stroke="black" cx="495.13" cy="-366.5" rx="27" ry="18"/>
<text xml:space="preserve" text-anchor="middle" x="495.13" y="-361.45" font-family="Times,serif" font-size="14.00">1&#39;0</text>
</g>
<!-- v0&#45;&gt;c26 -->
<g id="edge28" class="edge">
<title>v0:e&#45;&gt;c26:w</title>
<path fill="none" stroke="black" d="M523.38,-366.5C569.15,-366.5 582.51,-361.28 622.76,-339.5 637.47,-331.54 638.1,-316.49 647.88,-310.28"/>
<polygon fill="black" stroke="black" points="648.47,-313.74 657.3,-307.87 646.74,-306.96 648.47,-313.74"/>
</g>
<!-- v1 -->
<g id="node21" class="node">
<title>v1</title>
<ellipse fill="none" stroke="black" cx="495.13" cy="-312.5" rx="27" ry="18"/>
<text xml:space="preserve" text-anchor="middle" x="495.13" y="-307.45" font-family="Times,serif" font-size="14.00">1&#39;x</text>
</g>
<!-- v1&#45;&gt;c26 -->
<g id="edge29" class="edge">
<title>v1:e&#45;&gt;c26:w</title>
<path fill="none" stroke="black" d="M523.38,-312.5C581,-312.5 595.4,-286.68 647.44,-283.35"/>
<polygon fill="black" stroke="black" points="647.36,-286.86 657.25,-283.05 647.15,-279.86 647.36,-286.86"/>
</g>
<!-- c26&#45;&gt;n3 -->
<g id="edge19" class="edge">
<title>c26:e&#45;&gt;n3:w</title>
<path fill="none" stroke="black" d="M877.76,-314C894.05,-314 900.7,-313.69 912.92,-313.56"/>
<polygon fill="black" stroke="black" points="912.71,-317.06 922.69,-313.51 912.67,-310.06 912.71,-317.06"/>
</g>
<!-- c26&#45;&gt;n5 -->
<g id="edge21" class="edge">
<title>c26:e&#45;&gt;n5:w</title>
<path fill="none" stroke="black" d="M877.76,-204C899.44,-204 907.52,-204.35 924.74,-204.46"/>
<polygon fill="black" stroke="black" points="924.58,-207.96 934.59,-204.5 924.6,-200.96 924.58,-207.96"/>
</g>
<!-- v2 -->
<g id="node23" class="node">
<title>v2</title>
<ellipse fill="none" stroke="black" cx="27" cy="-501.5" rx="27" ry="18"/>
<text xml:space="preserve" text-anchor="middle" x="27" y="-496.45" font-family="Times,serif" font-size="14.00">1&#39;x</text>
</g>
<!-- c28 -->
<g id="node25" class="node">
<title>c28</title>
<polygon fill="none" stroke="black" points="90,-450 90,-499 331.5,-499 331.5,-450 90,-450"/>
<text xml:space="preserve" text-anchor="middle" x="108.12" y="-481.7" font-family="Times,serif" font-size="14.00">gnd</text>
<polyline fill="none" stroke="black" points="90,-474.5 126.25,-474.5"/>
<text xml:space="preserve" text-anchor="middle" x="108.12" y="-457.2" font-family="Times,serif" font-size="14.00">vcc</text>
<polyline fill="none" stroke="black" points="126.25,-450 126.25,-499"/>
<text xml:space="preserve" text-anchor="middle" x="190.88" y="-477.7" font-family="Times,serif" font-size="14.00">moisture_inst</text>
<text xml:space="preserve" text-anchor="middle" x="190.88" y="-461.2" font-family="Times,serif" font-size="14.00">moisture_sensor_top</text>
<polyline fill="none" stroke="black" points="255.5,-450 255.5,-499"/>
<text xml:space="preserve" text-anchor="middle" x="293.5" y="-469.7" font-family="Times,serif" font-size="14.00">analog_out</text>
</g>
<!-- v2&#45;&gt;c28 -->
<g id="edge32" class="edge">
<title>v2:e&#45;&gt;c28:w</title>
<path fill="none" stroke="black" d="M54,-501.5C66.7,-501.5 70.84,-493.55 78.99,-489.32"/>
<polygon fill="black" stroke="black" points="79.58,-492.77 88.53,-487.09 77.99,-485.96 79.58,-492.77"/>
</g>
<!-- v3 -->
<g id="node24" class="node">
<title>v3</title>
<ellipse fill="none" stroke="black" cx="27" cy="-447.5" rx="27" ry="18"/>
<text xml:space="preserve" text-anchor="middle" x="27" y="-442.45" font-family="Times,serif" font-size="14.00">1&#39;x</text>
</g>
<!-- v3&#45;&gt;c28 -->
<g id="edge33" class="edge">
<title>v3:e&#45;&gt;c28:w</title>
<path fill="none" stroke="black" d="M54,-447.5C66.7,-447.5 70.84,-455.45 78.99,-459.68"/>
<polygon fill="black" stroke="black" points="77.99,-463.04 88.53,-461.91 79.58,-456.23 77.99,-463.04"/>
</g>
<!-- c28&#45;&gt;n2 -->
<g id="edge16" class="edge">
<title>c28:e&#45;&gt;n2:w</title>
<path fill="none" stroke="black" d="M331.5,-474.75C352.12,-474.75 359.94,-474.58 376.16,-474.52"/>
<polygon fill="black" stroke="black" points="376.03,-478.02 386.02,-474.5 376.01,-471.02 376.03,-478.02"/>
</g>
<!-- v4 -->
<g id="node26" class="node">
<title>v4</title>
<ellipse fill="none" stroke="black" cx="27" cy="-555.5" rx="27" ry="18"/>
<text xml:space="preserve" text-anchor="middle" x="27" y="-550.45" font-family="Times,serif" font-size="14.00">1&#39;x</text>
</g>
<!-- x5 -->
<g id="node27" class="node">
<title>x5</title>
<ellipse fill="black" stroke="black" cx="210.75" cy="-555.5" rx="1.8" ry="1.8"/>
</g>
<!-- v4&#45;&gt;x5 -->
<g id="edge34" class="edge">
<title>v4:e&#45;&gt;x5:w</title>
<path fill="none" stroke="black" d="M54,-555.5C118.21,-555.5 137.09,-555.5 195.99,-555.5"/>
<polygon fill="black" stroke="black" points="195.96,-559 205.96,-555.5 195.96,-552 195.96,-559"/>
</g>
<!-- x5&#45;&gt;n4 -->
<g id="edge20" class="edge">
<title>x5:e&#45;&gt;n4:w</title>
<path fill="none" stroke="black" d="M214.03,-555.5C292.67,-555.5 315.09,-555.5 388.46,-555.5"/>
<polygon fill="black" stroke="black" points="388.16,-559 398.16,-555.5 388.16,-552 388.16,-559"/>
</g>
<!-- v6 -->
<g id="node28" class="node">
<title>v6</title>
<ellipse fill="none" stroke="black" cx="27" cy="-609.5" rx="27" ry="18"/>
<text xml:space="preserve" text-anchor="middle" x="27" y="-604.45" font-family="Times,serif" font-size="14.00">1&#39;0</text>
</g>
<!-- x7 -->
<g id="node29" class="node">
<title>x7</title>
<ellipse fill="black" stroke="black" cx="210.75" cy="-609.5" rx="1.8" ry="1.8"/>
</g>
<!-- v6&#45;&gt;x7 -->
<g id="edge35" class="edge">
<title>v6:e&#45;&gt;x7:w</title>
<path fill="none" stroke="black" d="M54,-609.5C118.21,-609.5 137.09,-609.5 195.99,-609.5"/>
<polygon fill="black" stroke="black" points="195.96,-613 205.96,-609.5 195.96,-606 195.96,-613"/>
</g>
<!-- x7&#45;&gt;n6 -->
<g id="edge24" class="edge">
<title>x7:e&#45;&gt;n6:w</title>
<path fill="none" stroke="black" d="M214.03,-609.5C318.58,-609.5 347.55,-609.5 446.65,-609.5"/>
<polygon fill="black" stroke="black" points="446.58,-613 456.58,-609.5 446.58,-606 446.58,-613"/>
</g>
<!-- x8&#45;&gt;n7 -->
<g id="edge25" class="edge">
<title>x8:e&#45;&gt;n7:w</title>
<path fill="none" stroke="black" d="M1202.83,-219.5C1220.14,-219.5 1226.68,-224.58 1239.61,-226.64"/>
<polygon fill="black" stroke="black" points="1239.29,-230.13 1249.52,-227.39 1239.81,-223.15 1239.29,-230.13"/>
</g>
<!-- v9 -->
<g id="node31" class="node">
<title>v9</title>
<ellipse fill="none" stroke="black" cx="27" cy="-663.5" rx="27" ry="18"/>
<text xml:space="preserve" text-anchor="middle" x="27" y="-658.45" font-family="Times,serif" font-size="14.00">1&#39;x</text>
</g>
<!-- x10 -->
<g id="node32" class="node">
<title>x10</title>
<ellipse fill="black" stroke="black" cx="210.75" cy="-663.5" rx="1.8" ry="1.8"/>
</g>
<!-- v9&#45;&gt;x10 -->
<g id="edge36" class="edge">
<title>v9:e&#45;&gt;x10:w</title>
<path fill="none" stroke="black" d="M54,-663.5C118.21,-663.5 137.09,-663.5 195.99,-663.5"/>
<polygon fill="black" stroke="black" points="195.96,-667 205.96,-663.5 195.96,-660 195.96,-667"/>
</g>
<!-- x10&#45;&gt;n8 -->
<g id="edge26" class="edge">
<title>x10:e&#45;&gt;n8:w</title>
<path fill="none" stroke="black" d="M214.03,-663.5C278.24,-663.5 297.12,-663.5 356.02,-663.5"/>
<polygon fill="black" stroke="black" points="355.99,-667 365.99,-663.5 355.99,-660 355.99,-667"/>
</g>
<!-- x11&#45;&gt;n9 -->
<g id="edge27" class="edge">
<title>x11:e&#45;&gt;n9:w</title>
<path fill="none" stroke="black" d="M771.54,-474.5C830.8,-474.5 848.39,-474.5 902.44,-474.5"/>
<polygon fill="black" stroke="black" points="902.25,-478 912.25,-474.5 902.25,-471 902.25,-478"/>
</g>
<!-- v12 -->
<g id="node34" class="node">
<title>v12</title>
<ellipse fill="none" stroke="black" cx="27" cy="-717.5" rx="27" ry="18"/>
<text xml:space="preserve" text-anchor="middle" x="27" y="-712.45" font-family="Times,serif" font-size="14.00">1&#39;x</text>
</g>
<!-- x13 -->
<g id="node35" class="node">
<title>x13</title>
<ellipse fill="black" stroke="black" cx="210.75" cy="-717.5" rx="1.8" ry="1.8"/>
</g>
<!-- v12&#45;&gt;x13 -->
<g id="edge30" class="edge">
<title>v12:e&#45;&gt;x13:w</title>
<path fill="none" stroke="black" d="M54,-717.5C118.21,-717.5 137.09,-717.5 195.99,-717.5"/>
<polygon fill="black" stroke="black" points="195.96,-721 205.96,-717.5 195.96,-714 195.96,-721"/>
</g>
<!-- x13&#45;&gt;n10 -->
<g id="edge2" class="edge">
<title>x13:e&#45;&gt;n10:w</title>
<path fill="none" stroke="black" d="M214.03,-717.5C278.24,-717.5 297.12,-717.5 356.02,-717.5"/>
<polygon fill="black" stroke="black" points="355.99,-721 365.99,-717.5 355.99,-714 355.99,-721"/>
</g>
<!-- v14 -->
<g id="node36" class="node">
<title>v14</title>
<ellipse fill="none" stroke="black" cx="27" cy="-771.5" rx="27" ry="18"/>
<text xml:space="preserve" text-anchor="middle" x="27" y="-766.45" font-family="Times,serif" font-size="14.00">1&#39;0</text>
</g>
<!-- x15 -->
<g id="node37" class="node">
<title>x15</title>
<ellipse fill="black" stroke="black" cx="210.75" cy="-771.5" rx="1.8" ry="1.8"/>
</g>
<!-- v14&#45;&gt;x15 -->
<g id="edge31" class="edge">
<title>v14:e&#45;&gt;x15:w</title>
<path fill="none" stroke="black" d="M54,-771.5C118.21,-771.5 137.09,-771.5 195.99,-771.5"/>
<polygon fill="black" stroke="black" points="195.96,-775 205.96,-771.5 195.96,-768 195.96,-775"/>
</g>
<!-- x15&#45;&gt;n12 -->
<g id="edge8" class="edge">
<title>x15:e&#45;&gt;n12:w</title>
<path fill="none" stroke="black" d="M214.03,-771.5C301.83,-771.5 326.6,-771.5 408.99,-771.5"/>
<polygon fill="black" stroke="black" points="408.93,-775 418.93,-771.5 408.93,-768 408.93,-775"/>
</g>
<!-- x16&#45;&gt;n13 -->
<g id="edge9" class="edge">
<title>x16:e&#45;&gt;n13:w</title>
<path fill="none" stroke="black" d="M771.54,-123.5C790.9,-123.5 912.22,-144.92 953.88,-149.6"/>
<polygon fill="black" stroke="black" points="953.54,-153.09 963.78,-150.38 954.09,-146.11 953.54,-153.09"/>
</g>
<!-- x17&#45;&gt;n14 -->
<g id="edge10" class="edge">
<title>x17:e&#45;&gt;n14:w</title>
<path fill="none" stroke="black" d="M1202.83,-189.5C1215.69,-189.5 1219.64,-180.87 1227.76,-176.29"/>
<polygon fill="black" stroke="black" points="1228.52,-179.7 1237.37,-173.87 1226.81,-172.92 1228.52,-179.7"/>
</g>
<!-- x18&#45;&gt;n18 -->
<g id="edge14" class="edge">
<title>x18:e&#45;&gt;n18:w</title>
<path fill="none" stroke="black" d="M771.54,-96.5C858.69,-96.5 883.28,-96.5 965.05,-96.5"/>
<polygon fill="black" stroke="black" points="964.91,-100 974.91,-96.5 964.91,-93 964.91,-100"/>
</g>
<!-- x19&#45;&gt;n19 -->
<g id="edge15" class="edge">
<title>x19:e&#45;&gt;n19:w</title>
<path fill="none" stroke="black" d="M771.54,-58.5C861.87,-58.5 886.75,-43.82 971.59,-42.58"/>
<polygon fill="black" stroke="black" points="971.61,-46.08 981.58,-42.51 971.56,-39.08 971.61,-46.08"/>
</g>
</g>
</svg>
